<svg xmlns:dc="http://purl.org/dc/elements/1.1/" xmlns:cc="http://creativecommons.org/ns#" xmlns:rdf="http://www.w3.org/1999/02/22-rdf-syntax-ns#" xmlns:svg="http://www.w3.org/2000/svg" xmlns="http://www.w3.org/2000/svg" xmlns:sodipodi="http://sodipodi.sourceforge.net/DTD/sodipodi-0.dtd" xmlns:inkscape="http://www.inkscape.org/namespaces/inkscape" version="1.1" x="0px" y="0px" viewBox="0 0 100 125"><g transform="translate(0,-952.36218)"><path style="font-size:medium;font-style:normal;font-variant:normal;font-weight:normal;font-stretch:normal;text-indent:0;text-align:start;text-decoration:none;line-height:normal;letter-spacing:normal;word-spacing:normal;text-transform:none;direction:ltr;block-progression:tb;writing-mode:lr-tb;text-anchor:start;baseline-shift:baseline;opacity:1;color:#000000;fill:#000000;fill-opacity:1;stroke:none;stroke-width:2;marker:none;visibility:visible;display:inline;overflow:visible;enable-background:accumulate;font-family:Sans;-inkscape-font-specification:Sans" d="M 27.8125,7 C 27.354098,7.0874665 26.991777,7.5334 27,8 l 0,5 -4,0 c -0.523584,5.2e-5 -0.999948,0.476416 -1,1 l 0,7 -4,0 c -0.03123,-0.0015 -0.06252,-0.0015 -0.09375,0 -0.523599,0.02454 -0.977668,0.523276 -0.953125,1.046875 C 16.977669,22.570474 17.476401,23.024544 18,23 L 22.125,23 32,92.15625 c 0.07429,0.469567 0.524629,0.849542 1,0.84375 l 34,0 c 0.475371,0.0058 0.925713,-0.374183 1,-0.84375 L 77.875,23 82,23 c 0.528313,0.0075 1.014242,-0.471635 1.014242,-1 0,-0.528365 -0.485929,-1.007472 -1.014242,-1 l -4,0 0,-7 c -5.2e-5,-0.523584 -0.476416,-0.999948 -1,-1 l -4,0 0,-5 C 72.999948,7.4764155 72.523584,7.0000524 72,7 L 28,7 c -0.03123,-0.00147 -0.06252,-0.00147 -0.09375,0 -0.03123,-0.00147 -0.06252,-0.00147 -0.09375,0 z M 29,9 l 42,0 0,5 c 5.2e-5,0.523584 0.476416,0.999948 1,1 l 4,0 0,6 -52,0 0,-6 4,0 c 0.523584,-5.2e-5 0.999948,-0.476416 1,-1 z m -4.84375,14 51.6875,0 -3,21 -45.6875,0 z m 3.28125,23 45.125,0 -3.15625,22 -38.8125,0 z m 3.4375,24 38.25,0 -3,21 -32.25,0 z" transform="translate(0,952.36218)"/></g><text x="0" y="115" fill="#000000" font-size="5px" font-weight="bold" font-family="'Helvetica Neue', Helvetica, Arial-Unicode, Arial, Sans-serif"></text><text x="0" y="120" fill="#000000" font-size="5px" font-weight="bold" font-family="'Helvetica Neue', Helvetica, Arial-Unicode, Arial, Sans-serif"></text></svg>