<?xml version="1.0" encoding="utf-8"?>
<!-- Generator: Adobe Illustrator 20.1.0, SVG Export Plug-In . SVG Version: 6.00 Build 0)  -->
<svg version="1.1" id="Layer_1" xmlns="http://www.w3.org/2000/svg" xmlns:xlink="http://www.w3.org/1999/xlink" x="0px" y="0px"
	 viewBox="0 0 223.2 27.2" style="enable-background:new 0 0 223.2 27.2;" xml:space="preserve">
<style type="text/css">
	.st0{fill:#08AE8C;}
</style>
<path class="st0" d="M17.8,25.2c-7.1,0-11.4-5.3-11.4-11.6v-0.1c0-6.1,4.5-11.7,11.2-11.7c3.7,0,6,1.1,8.3,3l-1.1,1.3
	C23,4.6,21,3.4,17.5,3.4C12,3.4,8.2,8,8.2,13.5v0.1c0,5.8,3.6,10.2,9.7,10.2c2.9,0,5.6-1.2,7.2-2.6v-6.5h-7.6v-1.5h9.2v8.7
	C24.7,23.6,21.5,25.2,17.8,25.2z"/>
<path class="st0" d="M42.1,25.2c-6.8,0-11.3-5.5-11.3-11.6v-0.1c0-6.2,4.6-11.7,11.4-11.7s11.3,5.5,11.3,11.6c0,0,0,0,0,0.1
	C53.5,19.7,48.9,25.2,42.1,25.2z M51.7,13.5c0-5.6-4.1-10.2-9.6-10.2s-9.6,4.5-9.6,10.1v0.1c0,5.6,4.1,10.2,9.6,10.2
	C47.7,23.7,51.7,19.1,51.7,13.5L51.7,13.5z"/>
<path class="st0" d="M68.5,25.2c-6.8,0-11.3-5.5-11.3-11.6v-0.1c0-6.2,4.6-11.7,11.4-11.7s11.3,5.5,11.3,11.6c0,0,0,0,0,0.1
	C79.9,19.7,75.3,25.2,68.5,25.2z M78.2,13.5c0-5.6-4.1-10.2-9.6-10.2C63,3.3,59,7.8,59,13.4v0.1c0,5.6,4.1,10.2,9.6,10.2
	C74.1,23.7,78.2,19.2,78.2,13.5L78.2,13.5z"/>
<path class="st0" d="M92.1,24.8h-7.5V2.2h7.5c7.1,0,12,4.9,12,11.2v0.1C104.1,19.9,99.2,24.8,92.1,24.8z M102.4,13.5
	c0-5.4-4-9.7-10.3-9.7h-5.8v19.5h5.8C98.4,23.3,102.4,19,102.4,13.5L102.4,13.5z"/>
<path class="st0" d="M119.8,25.2c-6.6,0-11.6-5.1-11.6-11.6v-0.1c0-6.4,4.8-11.7,11.8-11.7c4.3,0,6.8,1.4,8.9,3.5l-3.2,3.6
	c-1.7-1.6-3.5-2.5-5.8-2.5c-3.8,0-6.6,3.2-6.6,7v0.1c0,3.9,2.7,7.1,6.6,7.1c2.6,0,4.2-1,5.9-2.6l3.2,3.2
	C126.7,23.7,124.1,25.2,119.8,25.2z"/>
<path class="st0" d="M133,24.8V2.2h17v4.4h-12.1v4.6h10.6v4.4h-10.6v4.7h12.3v4.4H133V24.8z"/>
<path class="st0" d="M170.5,24.8l-10.9-14.4v14.4h-4.9V2.2h4.6l10.6,13.9V2.2h4.9v22.6H170.5z"/>
<path class="st0" d="M190.3,6.8v18h-5v-18h-6.9V2.2h18.7v4.6H190.3z"/>
<path class="st0" d="M208.6,25.1c-3.4,0-6.9-1.2-9.6-3.6l2.9-3.5c2,1.7,4.2,2.7,6.7,2.7c2,0,3.3-0.8,3.3-2.1v-0.1
	c0-1.3-0.8-1.9-4.6-2.9c-4.6-1.2-7.5-2.4-7.5-6.9V8.6c0-4.1,3.3-6.8,7.9-6.8c3.3,0,6.1,1,8.4,2.9l-2.6,3.7c-2-1.4-4-2.2-5.9-2.2
	s-2.9,0.9-2.9,2v0.1c0,1.5,1,2,4.9,3c4.6,1.2,7.2,2.8,7.2,6.8v0.1C216.9,22.6,213.5,25.1,208.6,25.1z"/>
</svg>
