<svg xmlns="http://www.w3.org/2000/svg" xmlns:xlink="http://www.w3.org/1999/xlink" version="1.1" x="0px" y="0px" viewBox="0 0 45 71.0125" enable-background="new 0 0 45 56.81" xml:space="preserve"><g><path d="M30.36,25.3c0.11,0.04,0.21,0.05,0.32,0.05c0.42,0,0.81-0.26,0.95-0.68c0.31-0.92,1.31-1.41,2.23-1.1   c1.96,0.66,4.1-0.39,4.77-2.35c0.18-0.52-0.1-1.09-0.62-1.27c-0.53-0.18-1.09,0.1-1.27,0.63c-0.31,0.92-1.31,1.41-2.23,1.1   c-1.96-0.66-4.1,0.39-4.77,2.35C29.56,24.55,29.84,25.12,30.36,25.3z"/><path d="M32.73,18.33c0.11,0.04,0.21,0.05,0.32,0.05c0.42,0,0.81-0.26,0.95-0.68c0.15-0.45,0.47-0.8,0.89-1.01s0.9-0.24,1.34-0.09   c1.96,0.66,4.1-0.39,4.77-2.35c0.18-0.52-0.1-1.09-0.63-1.27c-0.52-0.18-1.09,0.1-1.27,0.63c-0.31,0.92-1.31,1.41-2.23,1.1   c-0.95-0.32-1.97-0.26-2.87,0.19c-0.9,0.44-1.57,1.21-1.9,2.16C31.92,17.58,32.2,18.15,32.73,18.33z"/><path d="M35.09,11.36c0.11,0.04,0.22,0.05,0.32,0.05c0.42,0,0.81-0.26,0.95-0.68c0.23-0.68,0.97-1.04,1.65-0.81   c0.83,0.28,1.73,0.22,2.52-0.16c0.79-0.39,1.38-1.06,1.66-1.9c0.18-0.52-0.1-1.09-0.62-1.27c-0.52-0.18-1.09,0.1-1.27,0.63   c-0.11,0.33-0.34,0.59-0.66,0.75c-0.31,0.15-0.66,0.18-0.99,0.06c-1.72-0.58-3.6,0.34-4.19,2.06   C34.29,10.61,34.57,11.18,35.09,11.36z"/><path d="M41.76,25.02C43.75,18.56,44.84,12.23,45,6.2c0.04-1.73-0.71-3.69-1.87-4.89c-1.39-1.42-3.28-1.72-5.14-0.76   C35,2.1,32.86,6.63,31.14,10.28c-0.1,0.21-0.2,0.42-0.29,0.62c-0.38-1.74-1.53-3.23-3.17-4.01c-0.39-1.86-1.86-3.31-3.71-3.69   c-0.02-0.1-0.05-0.21-0.08-0.31c-0.38-1.3-1.53-2.28-2.86-2.44c-0.77-0.09-1.5,0.07-2.13,0.44c-0.54-0.3-1.15-0.46-1.77-0.46   c-1.74,0-3.2,1.21-3.58,2.84c-1.9,0.52-3.3,2.26-3.31,4.29c-2.17,0.56-3.75,2.52-3.75,4.85c0,0.62,0.12,1.23,0.34,1.81   c-0.56,0.7-0.87,1.57-0.87,2.48c0,0.55,0.11,1.08,0.33,1.56c-1-1.09-2.4-1.98-3.98-1.92c-0.55,0.02-0.99,0.48-0.97,1.03   c0.02,0.54,0.46,0.97,1,0.97c0.03,0,0.07,0,0.1,0c0.94,0,1.81,0.62,2.44,1.34c-1.59,0.46-3.5,1.2-4.39,2.88   c-0.54,1.01-0.6,2.25-0.25,3.67c-0.18,0.29-0.26,0.63-0.25,1L1.7,51.4c0.16,3.03,2.66,5.41,5.69,5.41h28.07   c3.04,0,5.54-2.38,5.69-5.39l1.75-25.05c0.02-0.36-0.11-0.71-0.36-0.97C42.34,25.18,42.06,25.06,41.76,25.02z M31.67,13.76   c0.4-0.74,0.83-1.66,1.29-2.63c1.5-3.19,3.56-7.56,5.95-8.79c1.08-0.56,2-0.44,2.79,0.37c0.89,0.91,1.33,2.42,1.31,3.44   c-0.15,5.91-1.23,12.13-3.21,18.49c-0.06,0.21-0.21,0.63-0.41,1.21l-1.7,0.76c-0.04,0.02-0.07,0.04-0.11,0.06   c-0.48,0.29-1.04,0.43-1.6,0.44c-0.56-0.01-1.11-0.15-1.6-0.44l-0.71-0.43c-0.8-0.48-1.72-0.74-2.66-0.74   c-0.25,0-0.5,0.02-0.75,0.06c-0.69,0.09-1.37,0.32-1.97,0.68l-0.71,0.43c-0.39,0.23-0.83,0.35-1.28,0.4   c0.02-0.08,0.05-0.15,0.07-0.22c0.28-0.94,0.58-1.88,0.89-2.8c0.11-0.34,0.23-0.67,0.35-1.01c0.26-0.73,0.53-1.46,0.82-2.18   c0.12-0.31,0.24-0.62,0.36-0.92C29.64,17.8,30.61,15.74,31.67,13.76z M18.53,12.07c-0.22,0.05-0.45-0.1-0.49-0.32   c-0.05-0.22,0.1-0.44,0.32-0.49l5.61-1.22c0.19,0,0.36,0.14,0.41,0.33c0.03,0.14-0.02,0.26-0.06,0.31   c-0.03,0.05-0.11,0.15-0.26,0.18L18.53,12.07z M18.92,16.13c0.12-0.15,0.23-0.3,0.34-0.44c0.08-0.11,0.15-0.21,0.21-0.32   c0.25-0.46,0.3-0.98,0.19-1.49l4.17-0.91c0.03,0.13,0.06,0.25,0.11,0.37c0.19,0.46,0.52,0.84,0.99,1.11   c0.15,0.08,0.31,0.17,0.47,0.25c0.13,0.07,0.27,0.15,0.41,0.22c0.07,0.04,0.13,0.07,0.2,0.11c0.12,0.07,0.23,0.14,0.35,0.21   c0.1,0.06,0.2,0.12,0.29,0.19c0.11,0.08,0.22,0.16,0.32,0.25c0.09,0.08,0.18,0.16,0.27,0.24c0.1,0.09,0.19,0.19,0.28,0.29   c0.15,0.18,0.3,0.38,0.42,0.6c-0.42,0.94-0.82,1.89-1.21,2.85c-0.06,0.15-0.12,0.29-0.18,0.44c-1.1,0.28-2.16,0.8-3.46,1.73   c-1.65,1.17-2.88,1.48-4.9,1.19l-0.61-2.78C17.16,18.37,18.06,17.23,18.92,16.13z M18.63,25.08c0.29,0.02,0.57,0.05,0.84,0.05   c1.74,0,3.15-0.52,4.76-1.67c0.51-0.36,0.96-0.64,1.39-0.86c-0.09,0.26-0.18,0.52-0.27,0.78c-0.06,0.19-0.13,0.37-0.2,0.56   c-0.29,0.89-0.57,1.79-0.84,2.69l-0.66-0.4c-0.8-0.48-1.72-0.74-2.66-0.74c-0.24,0-0.48,0.02-0.72,0.06   c-0.06,0.01-0.11,0.02-0.17,0.03c-0.11,0.02-0.22,0.04-0.33,0.06c-0.33,0.07-0.65,0.17-0.96,0.31L18.63,25.08z M8.69,15.18   l0.65-0.54l-0.43-0.73c-0.27-0.46-0.41-0.98-0.41-1.51c0-1.62,1.27-2.94,2.89-3.01l1.21-0.05l-0.28-1.18   c-0.05-0.2-0.07-0.39-0.07-0.58c0-1.29,1.01-2.37,2.29-2.47l0.92-0.07l0-1c0.03-0.9,0.77-1.62,1.68-1.62c0.52,0,0.9,0.24,1.12,0.44   l0.7,0.63l0.67-0.66c0.31-0.3,0.72-0.45,1.17-0.4c0.54,0.06,1.02,0.48,1.18,1.02c0.05,0.18,0.07,0.35,0.05,0.53L21.91,5.1h1.13   c1.44,0,2.64,1.12,2.74,2.56l0.05,0.66l0.62,0.22c1.56,0.55,2.59,2.03,2.56,3.68c-0.01,0.71-0.24,1.39-0.66,1.98   c-0.67-0.57-1.39-0.95-2-1.27c-0.16-0.08-0.31-0.16-0.46-0.25c-0.04-0.02-0.09-0.07-0.11-0.17c-0.02-0.14,0.03-0.32,0.14-0.44   c0.44-0.51,0.61-1.2,0.47-1.85l-0.12-0.55c-0.24-1.12-1.42-1.88-2.54-1.63L23.45,8.1c0,0-0.01,0-0.01,0l-2.94,0.64l-2.86,0.63   c-1.15,0.25-1.88,1.39-1.63,2.54l0.06,0.27c0,0,0,0,0,0c0,0,0,0,0,0l0.06,0.27c0.15,0.67,0.61,1.23,1.24,1.5   c0.16,0.07,0.29,0.19,0.33,0.32c0.03,0.07,0.01,0.11-0.05,0.21c-0.1,0.13-0.21,0.27-0.31,0.41c-0.11,0.14-0.23,0.29-0.34,0.44   c-0.04,0.05-0.07,0.1-0.11,0.14c-0.09,0.12-0.17,0.24-0.26,0.36c-0.04,0.06-0.08,0.13-0.13,0.19c-0.08,0.12-0.15,0.24-0.22,0.37   c-0.04,0.07-0.08,0.14-0.12,0.21c-0.08,0.14-0.14,0.29-0.21,0.44c-0.03,0.06-0.06,0.12-0.08,0.19c-0.09,0.22-0.17,0.45-0.23,0.69   c-0.01,0.04-0.01,0.08-0.02,0.11c-0.05,0.21-0.09,0.42-0.11,0.64c-0.01,0.09-0.01,0.18-0.02,0.27c-0.01,0.12-0.02,0.23-0.02,0.35   c-0.03-0.04-0.06-0.07-0.09-0.11c-0.07-0.09-0.13-0.16-0.2-0.25c-0.15-0.18-0.3-0.36-0.45-0.52c-0.07-0.08-0.15-0.16-0.22-0.23   c-0.16-0.16-0.32-0.31-0.47-0.44c-0.06-0.05-0.12-0.11-0.18-0.16c-0.21-0.17-0.42-0.32-0.64-0.46c-0.06-0.04-0.13-0.07-0.2-0.11   c-0.16-0.09-0.31-0.17-0.47-0.23c-0.09-0.04-0.17-0.07-0.26-0.1c-0.14-0.05-0.29-0.09-0.43-0.13c-0.09-0.02-0.17-0.04-0.26-0.06   c-0.18-0.03-0.36-0.05-0.55-0.05c-0.04,0-0.08-0.01-0.13-0.01c-1.04,0-1.99,0.41-2.82,0.95c-0.09-0.23-0.14-0.47-0.14-0.72   C7.97,16.1,8.23,15.55,8.69,15.18z M2.26,23.48c0.42-0.8,1.45-1.41,3.23-1.92c0.83-0.24,1.61-0.68,2.24-1.28   c0.28-0.27,0.54-0.5,0.8-0.71c0.23-0.19,0.45-0.35,0.66-0.49c0.01-0.01,0.02-0.01,0.02-0.01c0.42-0.27,0.81-0.45,1.17-0.55   c0.01,0,0.03-0.01,0.04-0.01c0.18-0.04,0.35-0.07,0.52-0.07c1.26,0,2.61,1.25,4.01,3.73c0.74,1.3,0.98,3.21,0.66,4.88   c-0.07-0.01-0.15-0.02-0.22-0.03c-0.36-0.07-0.71-0.18-1.02-0.37l-0.71-0.43c-0.8-0.48-1.72-0.74-2.66-0.74   c-0.25,0-0.5,0.02-0.75,0.06c-0.69,0.09-1.37,0.32-1.97,0.68l-0.35,0.21c-0.59,0.36-1.28,0.53-1.96,0.54   C5.28,26.98,4.6,26.8,4,26.45l-1.35-0.81c-0.18-0.1-0.37-0.18-0.56-0.21C1.94,24.63,1.99,23.99,2.26,23.48z M39.16,51.3   c-0.1,1.97-1.72,3.51-3.69,3.51H7.4c-1.97,0-3.59-1.54-3.7-3.53L2.04,27.64l0.87,0.52c0.92,0.55,1.99,0.83,3.06,0.82   c1.07,0.01,2.13-0.27,3.06-0.82l0.35-0.21c0.48-0.29,1.04-0.43,1.6-0.44c0.56,0.01,1.11,0.15,1.6,0.44l0.71,0.43   c0.61,0.37,1.3,0.59,2.01,0.68c0.23,0.03,0.47,0.05,0.71,0.05c0.16,0,0.33-0.01,0.49-0.02c0.04,0,0.07-0.02,0.11-0.03   c0.66-0.08,1.31-0.29,1.89-0.62c0.06-0.02,0.12-0.02,0.18-0.05l0.71-0.43c0.48-0.29,1.04-0.43,1.6-0.44   c0.56,0.01,1.11,0.15,1.6,0.44l0.71,0.43c0.67,0.4,1.42,0.62,2.19,0.69c0.04,0,0.07,0.01,0.11,0.02c0,0,0.01,0,0.01,0   c0.02,0,0.08,0.01,0.08,0.01c0.01,0,0.02,0,0.04,0c0.05,0,0.1,0,0.16,0c0.2,0,0.39-0.01,0.59-0.03c0.26-0.02,0.52-0.07,0.78-0.13   c0.04-0.01,0.09-0.02,0.13-0.03c0.46-0.12,0.9-0.28,1.31-0.53l0.71-0.43c0.48-0.29,1.04-0.43,1.6-0.44   c0.56,0.01,1.11,0.15,1.6,0.44l0.71,0.43c0.6,0.36,1.27,0.59,1.96,0.68c0.25,0.04,0.51,0.06,0.76,0.06c0.91,0,1.81-0.24,2.6-0.7   l1.96-0.87c0.04-0.02,0.07-0.06,0.11-0.08l0.15-0.07L39.16,51.3z"/><path d="M6,42.99h7c0.55,0,1-0.45,1-1s-0.45-1-1-1H6c-0.55,0-1,0.45-1,1S5.45,42.99,6,42.99z"/><path d="M6,46.99h9c0.55,0,1-0.45,1-1s-0.45-1-1-1H6c-0.55,0-1,0.45-1,1S5.45,46.99,6,46.99z"/><path d="M17,48.99H6c-0.55,0-1,0.45-1,1s0.45,1,1,1h11c0.55,0,1-0.45,1-1S17.55,48.99,17,48.99z"/><path d="M23,48.99h-2c-0.55,0-1,0.45-1,1s0.45,1,1,1h2c0.55,0,1-0.45,1-1S23.55,48.99,23,48.99z"/></g><text x="0" y="71.81" fill="#000000" font-size="5px" font-weight="bold" font-family="'Helvetica Neue', Helvetica, Arial-Unicode, Arial, Sans-serif">Created by Oliviu Stoian</text><text x="0" y="76.81" fill="#000000" font-size="5px" font-weight="bold" font-family="'Helvetica Neue', Helvetica, Arial-Unicode, Arial, Sans-serif">from the Noun Project</text></svg>