<svg xmlns="http://www.w3.org/2000/svg" xmlns:xlink="http://www.w3.org/1999/xlink" version="1.1" x="0px" y="0px" viewBox="0 0 100 125" style="enable-background:new 0 0 100 100;" xml:space="preserve"><path d="M62.5,29.5c-0.2-0.2-0.3-0.5-0.3-0.7c0-0.3-0.3-0.6-0.6-0.6c-0.3,0-0.6,0.3-0.6,0.6c0,0.6,0.3,1.2,0.8,1.7  c0.3,0.3,0.7,0.5,1.1,0.6v0.1c0,0.3,0.3,0.6,0.6,0.6c0.3,0,0.6-0.3,0.6-0.6V31c0.4-0.1,0.8-0.3,1.1-0.6c0.9-0.8,1-2.2,0.2-3.1  c-0.4-0.5-0.9-0.6-1.3-0.7v-2.1c0.1,0.1,0.2,0.1,0.3,0.2c0.2,0.2,0.3,0.5,0.3,0.7c0,0.3,0.3,0.6,0.6,0.6c0.3,0,0.6-0.3,0.6-0.6  c0-0.6-0.3-1.2-0.8-1.7c-0.3-0.3-0.7-0.5-1.1-0.6V23c0-0.3-0.3-0.6-0.6-0.6c-0.3,0-0.6,0.3-0.6,0.6v0.1c-0.4,0.1-0.8,0.3-1.1,0.6  c-0.5,0.5-0.8,1.1-0.7,1.8c0.1,0.7,0.4,1.3,1,1.7c0.3,0.2,0.6,0.3,0.8,0.4v2.1C62.6,29.7,62.5,29.6,62.5,29.5z M64,27.9  c0.2,0.1,0.3,0.1,0.4,0.3c0.4,0.4,0.3,1-0.1,1.4c-0.1,0.1-0.2,0.1-0.3,0.2V27.9z M62.6,26.2c-0.3-0.2-0.4-0.5-0.5-0.8  c0-0.3,0.1-0.6,0.3-0.8c0.1-0.1,0.2-0.1,0.3-0.2v1.9C62.7,26.3,62.6,26.3,62.6,26.2z M67.3,33c1.9-1.3,3.2-3.4,3.2-5.9  c0-3.9-3.2-7.1-7.1-7.1s-7.1,3.2-7.1,7.1c0,0.2,0,0.5,0,0.7c-2.3-0.4-4.6-0.4-6.9-0.1c-1.7-3.6-4.6-6.4-4.7-6.6l-0.4-0.4l-0.4,0.4  c-0.2,0.2-3.6,3.6-5.2,7.8c-1.8-3.3-4.2-5.8-4.4-5.9l-0.4-0.4l-0.4,0.4c-0.2,0.2-6.1,6-6.1,11.9c0,3.8,1.2,6.9,3.3,8.5  c-0.7,2.2-1.1,4.6-1.1,7c0,0,0,0.1,0,0.1c-2.8,1.1-4.7,3.2-4.7,5.5c0,3.2,3.5,5.9,8.1,6.3c2,3.2,4.8,6,8.1,7.9  c0.2,0.1,0.5,0.3,0.7,0.4V78c0,0.3,0.3,0.6,0.6,0.6s0.6-0.3,0.6-0.6v-6.8c0.9,0.4,1.8,0.8,2.8,1.1v7.1c0,0.3,0.3,0.6,0.6,0.6  c0.3,0,0.6-0.3,0.6-0.6v-6.8c1.8,0.4,3.6,0.7,5.5,0.7c2,0,3.9-0.3,5.7-0.7v6.9c0,0.3,0.3,0.6,0.6,0.6c0.3,0,0.6-0.3,0.6-0.6v-7.2  c1-0.3,1.9-0.7,2.8-1.1V78c0,0.3,0.3,0.6,0.6,0.6s0.6-0.3,0.6-0.6v-7.5c7.1-3.9,11.9-11.4,11.9-20.1C75.3,43.6,72.4,37.4,67.3,33z   M63.4,21.2c3.2,0,5.9,2.6,5.9,5.9S66.6,33,63.4,33c-3.2,0-5.9-2.6-5.9-5.9S60.1,21.2,63.4,21.2z M44.3,22.4  c1.3,1.4,5.3,6.1,5.3,10.5c0,4.9-2.2,8.4-5.3,8.4S39,37.9,39,32.9C39,28.5,42.9,23.9,44.3,22.4z M28.5,34.8c0-4.4,4-9.1,5.3-10.5  c0.9,1,3,3.4,4.3,6.3c-0.2,0.7-0.3,1.5-0.3,2.2c-3,2.5-5.3,5.7-6.7,9.3C29.4,40.7,28.5,38.1,28.5,34.8z M33.3,61.1  C29.2,60.9,26,58.7,26,56c0-2.8,3.5-5.1,7.8-5.1s7.8,2.3,7.8,5.1s-3.5,5.1-7.8,5.1C33.6,61.1,33.5,61.1,33.3,61.1z M52.4,72  c-7.2,0-14.1-3.7-18.1-9.7c4.7-0.2,8.5-2.9,8.5-6.3c0-3.5-4.1-6.3-9.1-6.3c-1.1,0-2.1,0.1-3.1,0.4c0.1-6.1,2.6-11.7,7.1-15.8  c0.4,4.9,2.9,8.2,6.5,8.2c3.8,0,6.5-3.9,6.5-9.6c0-1.4-0.3-2.8-0.9-4.1c2.2-0.2,4.5-0.2,6.6,0.3c0.9,2.9,3.6,5.1,6.8,5.1  c1,0,1.9-0.2,2.8-0.6c5,4.1,7.9,10.2,7.9,16.7C74,62.3,64.3,72,52.4,72z M67,41c0.2,0.3,0.1,0.7-0.1,0.9c-0.1,0.1-0.2,0.1-0.4,0.1  c-0.2,0-0.4-0.1-0.5-0.3c-2.6-3.6-6.7-6.1-11.1-6.8c-0.3-0.1-0.6-0.4-0.5-0.7c0.1-0.3,0.4-0.6,0.7-0.5C59.8,34.4,64.2,37.1,67,41z   M40.4,43.8c0,0.5-0.4,1-1,1c-0.5,0-1-0.4-1-1c0-0.5,0.4-1,1-1C39.9,42.8,40.4,43.2,40.4,43.8z M34.8,43.8c0,0.5-0.4,1-1,1  c-0.5,0-1-0.4-1-1c0-0.5,0.4-1,1-1C34.3,42.8,34.8,43.2,34.8,43.8z M31.5,56.3c0,1.4-0.5,2.5-1.1,2.5c-0.6,0-1.1-1.1-1.1-2.5  c0-1.4,0.5-2.5,1.1-2.5C31,53.8,31.5,54.9,31.5,56.3z M37,56.3c0,1.4-0.5,2.5-1.1,2.5s-1.1-1.1-1.1-2.5c0-1.4,0.5-2.5,1.1-2.5  S37,54.9,37,56.3z"/><text x="0" y="115" fill="#000000" font-size="5px" font-weight="bold" font-family="'Helvetica Neue', Helvetica, Arial-Unicode, Arial, Sans-serif"></text><text x="0" y="120" fill="#000000" font-size="5px" font-weight="bold" font-family="'Helvetica Neue', Helvetica, Arial-Unicode, Arial, Sans-serif"></text></svg>