<svg xmlns="http://www.w3.org/2000/svg" xmlns:xlink="http://www.w3.org/1999/xlink" version="1.1" x="0px" y="0px" viewBox="0 0 283.46 354.325" enable-background="new 0 0 283.46 283.46" xml:space="preserve"><path fill="#000000" d="M273.145,165.99c-5.138-14.73-21.342-16.959-32.063-18.436c-1.181-0.162-2.295-0.314-3.338-0.475  c-4.438-0.684-11.856-2.338-20.921-4.939c0.093-0.172,0.174-0.354,0.235-0.547c0.507-1.607-0.386-3.324-1.992-3.832l-0.349-0.111  c-2.094-0.67-6.149-1.963-9.74,0.826c-2.596-0.859-5.263-1.781-7.98-2.762c0.157-0.203,0.291-0.426,0.395-0.674  c0.653-1.555-0.079-3.346-1.633-3.998c-1.542-0.646-5.15-2.162-8.743-0.625c-0.539,0.23-1.051,0.523-1.541,0.867  c-0.729-0.297-1.458-0.596-2.19-0.902c-1.323-0.553-2.633-1.109-3.93-1.662c0.111-0.146,0.213-0.301,0.297-0.471  c0.764-1.506,0.161-3.342-1.343-4.104c-2.368-1.201-5.935-2.35-9.484-1.02c-0.379,0.143-0.743,0.311-1.096,0.5  c-2.109-0.947-4.16-1.877-6.15-2.787c0.119-0.137,0.229-0.281,0.324-0.439c0.865-1.449,0.393-3.324-1.055-4.189  c-3.195-1.91-6.502-2.443-9.306-1.502c-0.566,0.189-1.105,0.438-1.618,0.734c-2.192-1.02-4.294-2-6.297-2.922  c0.055-0.08,0.105-0.162,0.154-0.248c0.815-1.473,0.282-3.332-1.192-4.15c-1.453-0.803-5.264-2.518-9.305-1.084  c-0.106,0.037-0.21,0.08-0.315,0.121l-27.348-15.307c-1.368-0.768-3.094-0.373-3.994,0.912c-0.194,0.277-4.77,6.885-5.228,13.764  c-0.46,6.893,0.491,10.564,1.31,12.383c-12.346,8.201-23.245,13.861-29.891,15.383c-14.12,3.234-31.812-2.967-35.65-17.355  c-0.217-0.816-0.762-1.506-1.505-1.904c-0.742-0.4-1.617-0.473-2.417-0.205c-10.845,3.641-18.943,15.574-20.633,30.4  c-0.001,0.016,0,0.027-0.002,0.043c-0.007,0.062-0.01,0.129-0.012,0.193c-0.002,0.039-0.004,0.076-0.004,0.117  c0,0.057,0.004,0.111,0.007,0.168c0.002,0.047,0.005,0.096,0.009,0.141c0.006,0.047,0.012,0.09,0.02,0.135  c0.008,0.057,0.016,0.111,0.027,0.166c0.008,0.035,0.018,0.072,0.026,0.111c0.015,0.059,0.029,0.117,0.048,0.174  c0.011,0.037,0.024,0.072,0.037,0.107c0.02,0.057,0.039,0.113,0.062,0.168c0.016,0.041,0.036,0.078,0.055,0.119  c0.021,0.047,0.043,0.094,0.068,0.141c0.024,0.047,0.053,0.092,0.08,0.139c0.021,0.035,0.043,0.074,0.066,0.109  c0.033,0.049,0.069,0.096,0.105,0.145c0.022,0.029,0.044,0.061,0.067,0.09c0.038,0.047,0.078,0.092,0.118,0.137  c0.027,0.029,0.053,0.059,0.08,0.086c0.038,0.039,0.078,0.076,0.119,0.113c0.034,0.031,0.068,0.062,0.104,0.092  c0.035,0.029,0.072,0.057,0.108,0.084c0.046,0.035,0.092,0.07,0.14,0.102c0.03,0.02,0.062,0.041,0.095,0.059  c0.057,0.037,0.114,0.07,0.174,0.102c0.012,0.008,0.021,0.014,0.033,0.02c0.016,0.01,0.031,0.014,0.047,0.021  c0.078,0.039,0.158,0.074,0.241,0.107c0.032,0.012,0.063,0.023,0.095,0.035c0.074,0.027,0.149,0.049,0.226,0.07  c0.038,0.01,0.075,0.02,0.112,0.029c0.071,0.018,0.144,0.029,0.217,0.039c0.064,0.01,0.128,0.02,0.191,0.023  c0.082,0.008,0.164,0.014,0.244,0.016c0.01,0,0.018,0.002,0.026,0.002c0.031,0,0.062-0.006,0.093-0.006  c0.085-0.004,0.17-0.01,0.252-0.02c0.048-0.004,0.096-0.012,0.143-0.02c0.08-0.012,0.158-0.029,0.237-0.049  c0.04-0.01,0.081-0.018,0.122-0.029c0.107-0.031,0.213-0.068,0.315-0.111c0.046-0.018,0.091-0.041,0.136-0.062  c0.062-0.029,0.125-0.059,0.185-0.092c0.05-0.029,0.099-0.057,0.147-0.086c0.061-0.039,0.119-0.082,0.178-0.125  c0.064-0.047,0.129-0.096,0.189-0.148c0.057-0.051,0.111-0.1,0.164-0.152c0.037-0.037,0.072-0.076,0.108-0.113  c0.062-0.068,0.118-0.139,0.173-0.213c0,0,0.002,0,0.002-0.002c-0.381,3.35-0.578,6.764-0.578,10.227  c0,11.082,0.373,20.445,4.949,30.879c-0.696,1.594-1.471,4.547-0.363,8.607c1.714,6.283,8.546,8.562,12.719,8.562h91.415  c5.495,0,13.131-0.027,21.217-0.057c17.58-0.064,37.506-0.137,41.761,0.053c0.88,0.039,1.809,0.059,2.777,0.059  c14.236,0,36.976-3.992,38.02-4.176l0.641-0.119c0.261,0.141,0.548,0.246,0.854,0.307c0.2,0.039,0.398,0.057,0.595,0.057  c0.183,0,0.363-0.016,0.54-0.047c1.252-0.227,2.483-0.449,3.694-0.664c6.81-1.217,12.689-2.268,17.57-3.543  c9.332-2.438,17.108-4.863,24.742-8.785l0,0c0.936-0.48,1.597-1.432,1.654-2.559C275.721,178.101,274.997,171.298,273.145,165.99z   M250.176,157.007c-0.41-0.617-1.018-1.348-2.077-2.166c3.766,0.738,7.493,1.793,10.721,3.52c0.251,0.186,0.511,0.518,0.177,0.992  c-1.869,2.254-4.11,4.133-6.714,5.588c-0.603,0.336-1.222,0.676-1.856,1.023c-1.105,0.607-2.26,1.242-3.442,1.92  c2.1-2.391,3.575-4.361,4.065-6.527C251.283,160.324,251.32,158.732,250.176,157.007z M127.56,112.224  c-0.291,0.537-0.559,1.105-0.805,1.711c-0.633,1.564,0.122,3.344,1.687,3.977c0.375,0.152,0.763,0.225,1.144,0.225  c1.207,0,2.352-0.723,2.832-1.91c0.262-0.648,0.553-1.207,0.869-1.682c0.598,0.262,1.204,0.531,1.831,0.811  c0.093,0.047,0.188,0.09,0.284,0.129c3.114,1.395,6.563,2.994,10.298,4.732c-0.207,0.414-0.404,0.848-0.587,1.305  c-0.633,1.564,0.12,3.344,1.686,3.977c0.374,0.15,0.763,0.223,1.145,0.223c1.207,0,2.351-0.721,2.831-1.91  c0.149-0.369,0.308-0.701,0.471-1.014c3.737,1.736,7.782,3.604,12.076,5.545c-0.227,0.441-0.444,0.906-0.643,1.398  c-0.632,1.562,0.123,3.344,1.688,3.975c0.374,0.152,0.763,0.225,1.144,0.225c1.207,0,2.352-0.721,2.831-1.91  c0.178-0.439,0.37-0.836,0.571-1.188c3.852,1.703,7.866,3.439,12.015,5.176c0.225,0.094,0.447,0.184,0.67,0.277  c-0.174,0.383-0.343,0.779-0.5,1.195c-0.603,1.576,0.187,3.34,1.763,3.943c0.358,0.137,0.726,0.201,1.088,0.201  c1.23,0,2.389-0.75,2.855-1.965c0.149-0.395,0.307-0.754,0.47-1.09c4.724,1.85,9.411,3.553,13.952,5.09  c-0.146,0.334-0.289,0.674-0.428,1.037c-0.602,1.576,0.188,3.34,1.763,3.941c0.359,0.139,0.727,0.203,1.089,0.203  c1.229,0,2.389-0.748,2.854-1.965c0.187-0.486,0.369-0.918,0.549-1.303c5.058,1.607,9.854,2.992,14.226,4.143  c-2.293,3.295-8.216,8.855-25.382,1.918c-9.168-3.705-31.752-13.133-51.678-21.453c-13.457-5.619-25.555-10.67-32.574-13.566  c0.401-0.293,0.803-0.586,1.205-0.885c0.123-0.09,0.238-0.189,0.346-0.297C113.253,115.378,119.054,109.707,127.56,112.224z   M102.494,106.935c0.203-3.061,1.61-6.227,2.728-8.307l13.198,7.389c-5.13,1.242-8.515,4.143-9.357,4.926  c-1.545,1.143-3.082,2.254-4.605,3.334c-0.598,0.133-1.147,0.445-1.572,0.898C102.55,113.781,102.208,111.218,102.494,106.935z   M36.278,133.273c1.555,1.254,3.245,2.398,5.061,3.4c8.214,4.539,18.102,5.809,27.844,3.574c8.278-1.896,21.622-9.02,36.59-19.43  c1.89,0.77,4.702,1.93,8.173,3.373c-3.752,3.338-11.048,9.312-20.447,14.475c-4.438,2.439-8.912,4.889-13.347,7.189  c-0.806,0.416-2.688,1.355-4.495,2.402c-33.867-3.832-45.475-9.303-49.426-12.367C29.288,134.601,32.677,133.699,36.278,133.273z   M16.876,134.146c2.502-5.529,6.193-9.906,10.54-12.303c0.917,2.15,2.145,4.209,3.636,6.133  C25.73,129.166,20.888,131.292,16.876,134.146z M18.619,157.63c0-4.01,0.28-7.945,0.828-11.773  c4.887,17.07,13.956,31.35,22.52,40.182c-8.216-0.027-16.149-0.115-19.109-0.434C18.933,176.421,18.619,168.152,18.619,157.63z   M121.231,199.57H29.816c-2.306,0-6.07-1.289-6.825-4.061c-0.47-1.719-0.373-2.986-0.188-3.787c0.075,0.006,0.149,0.012,0.224,0.02  c1.559,0.127,3.75,0.219,6.699,0.285c5.436,0.119,12.732,0.127,20.459,0.135c6.236,0.008,12.685,0.014,18.688,0.08  c41.573,0.453,58.415,4.373,69.562,6.967c0.458,0.107,0.909,0.211,1.356,0.314C132.703,199.548,126.115,199.57,121.231,199.57z   M139.818,193.259c-11.404-2.654-28.637-6.664-70.877-7.127c-5.766-0.062-11.92-0.07-17.909-0.076  c-11.021-8.664-21.774-26.623-26.305-44.037c-0.271-1.041-0.523-2.09-0.768-3.137c3.956,4.135,15.302,12.459,45.353,17.949  c38.456,7.025,67.344,4.967,72.112,34.168c0.152,0.934,0.322,1.848,0.506,2.748C141.24,193.589,140.541,193.427,139.818,193.259z   M163.495,158.908c-10.068-3.939-22.992-6.604-39.553-7.242c-14.446-0.559-26.803-1.354-37.372-2.305  c3.286-1.752,6.591-3.541,9.867-5.342c12.262-6.734,20.961-14.596,23.729-17.244c6.361,2.65,13.932,5.811,21.697,9.053  c8.833,3.688,18.188,7.594,26.669,11.125L163.495,158.908z M224.983,192.197c-4.776,1.014-14.963,2.922-28.255,4.006  c-2.275-12.115-9.309-25.838-27.644-34.844c0.011-0.023,0.024-0.043,0.033-0.064l5.055-11.996c8.248,3.426,15.235,6.314,19.433,8.01  c6.275,2.535,11.714,3.793,16.471,3.793c1.834,0,3.566-0.188,5.208-0.561c4.431-1.008,8.045-3.379,10.775-7.055  c1.963,0.404,5.166,1.117,8.451,2.072c6.321,1.834,8.919,3.375,9.954,4.207c0.266,0.254,0.525,0.654,0.231,1.129  c-0.761,1.281-2.438,3.129-4.071,4.934C235.717,171.236,228.417,179.294,224.983,192.197z M269.269,184.117  c-6.656,3.217-13.631,5.359-21.911,7.521c-4.428,1.156-9.874,2.146-16.153,3.271c4.268-13.764,14.107-19.17,22.162-23.59  c0.646-0.357,1.279-0.703,1.894-1.047c3.532-1.973,6.546-4.555,8.997-7.697c1.312,1.512,2.378,3.299,3.121,5.426  C268.836,172.183,269.469,177.599,269.269,184.117z"/><text x="0" y="298.46" fill="#000000" font-size="5px" font-weight="bold" font-family="'Helvetica Neue', Helvetica, Arial-Unicode, Arial, Sans-serif">Created by Simon Child</text><text x="0" y="303.46" fill="#000000" font-size="5px" font-weight="bold" font-family="'Helvetica Neue', Helvetica, Arial-Unicode, Arial, Sans-serif">from the Noun Project</text></svg>