<svg xmlns="http://www.w3.org/2000/svg" data-name="Layer 1" viewBox="0 0 100 125" x="0px" y="0px"><defs><style>.cls-1{fill-rule:evenodd;}</style></defs><title>Arrow Right_1</title><path class="cls-1" d="M62.37,41c-.18-.36-.45-.21-.81-.19a40.05,40.05,0,0,0,4.65,1.75.29.29,0,0,1-.46-.06c1.08,1.44,4.71,1.4,5.87,2.47,0,.35-.35.06-.47.22,2.28,1.24,7.31,2,8.08,3.94a3,3,0,0,1-2.16,1.68,3.33,3.33,0,0,0,0,.7c-.19.41-.64.27-.77.8-3.86,2-7.62,4.1-11.56,5.87-4.13,2-8.11,4.29-12.38,6-.16.51-.35,1-.69,1.12-.83-.45-.68-1.36-.69-2.2-2.59-2-2.41-5.34-2.67-8.47-2-.72-5,.3-7.52,0a13.71,13.71,0,0,0-3.67-.13c-1.47-1.27-3.54-.31-5.43-.66-3.34.31-7.23-.16-10.5.68-1.25-.5-1.85.37-2.92.24-.24-.13-.16-.41-.51-.48-.52-.23-.68.3-1.2.06-1.11-2.36-1-5.31-2.19-7.61.5-.5,1.41-.18,2.13-.23.16-.41-.31-.53,0-1,.59.25.66.3,1.1.2,0,.25.55.22.4.53,4.47.43,8.85.18,13.36.63a1.5,1.5,0,0,1,1.28,0c2.57-.33,5.25,0,7.52-.26.31.22.75,0,.87.31.16-.17.42-.12.59-.28,2.09.31,3.48.09,5.24.39.2-.28.55-.25.77-.51s-.49-.44-.74-.65A6.73,6.73,0,0,0,47,44.25c0-.22-.16-.06-.29-.3s-.06-.74-.16-.93-.36-.27-.43-.45c-.2-.54-.14-1.16-.38-1.7a23.94,23.94,0,0,1-1.49-3,.73.73,0,0,1-.77-.86,3.45,3.45,0,0,1-1.27-.84,6.68,6.68,0,0,1,2.66-.62c.84.07,1.66.72,2.55.81a23.54,23.54,0,0,1,3.28.67c.13,0,.6.31.4.24a28.64,28.64,0,0,0,4.08,1.16c.23.26.22.18.55.39,1.12.12,3.64,1.08,5.33,1.5C61.32,40.27,62.79,40.21,62.37,41ZM21.67,53.57c.12-.5.75.06.85-.48-.23-.27-1.24,0-1.24-.64.07-.2.84-.22.45-.43-1,0-1.86.13-2.8.18-.33.17-.25,1.19-.75,1a4.19,4.19,0,0,1-.54-.68c-.18.11-.13.54-.19.81C18.92,54.28,20.16,53.24,21.67,53.57Zm-5-3.24c.05-.53-.31-.86-.17-1.43.29.18.34.46.54.68,0-.43.21-1.19-.31-.79A2.42,2.42,0,0,1,16.66,47a1.51,1.51,0,0,0-1.31.12C16,49,16.12,51.52,17,53.07,16.71,52.22,17.44,50.91,16.66,50.33Zm35,13a.51.51,0,0,0,.11.53C51.89,63.53,52.08,63.43,51.64,63.3Zm2.72-.79c-.06,0-.07-.11,0-.2-.78-.19-1.86.34-1.69,1.16C53.2,63.09,53.93,63.1,54.37,62.51Zm-26.44-10c0,.3,1.26.25,1.66,0l-.06.17c3.64-.2,7.28.08,10.55-.27-1.15-.48-2.59.46-3.43-.53a.51.51,0,0,0,0,.38c-4.5,0-9.82-.43-13.91.35A10.51,10.51,0,0,0,27.92,52.46Zm-6.51-2.31a17.55,17.55,0,0,0-2.68.13c0,.29-.13.69.07.9C19.53,50.64,20.92,50.69,21.41,50.15Zm1.5,1c-.54-.24-.53,0-.85.19a1.4,1.4,0,0,0-1.4.09,3.33,3.33,0,0,0,2-.08c-.06,0-.07-.11,0-.2S22.86,51.27,22.91,51.17Zm26.42,3.2a.57.57,0,0,1-.46-.07C49,56.62,48.72,59,50,60.47a1.59,1.59,0,0,0,.64,1.5C50.25,59.42,50.15,56.72,49.33,54.37Zm3.24,7.4c.11,0,.08.15.23.18a23.83,23.83,0,0,0,2.66-.62,6.68,6.68,0,0,1-2.73-.57c-.08-.15,0-.41.13-.64C52,60.08,52.71,61.27,52.57,61.78ZM23.11,51.44c.76-.13,1.72.18,2.28-.37a19.86,19.86,0,0,0-2.24,0C23.06,51.21,23.17,51.28,23.11,51.44ZM23,50.12c.14,0,.13-.33.29-.28.62.2,1-.17,1.63.09.05-.1.07-.26.18-.23.85-.22,2.52.19,2.81-.47-3,0-6.43-.54-9.16.47C20.2,50.24,21.45,49.95,23,50.12Zm1.77.24c-.22.08-.11,0-.35-.12,0,.17-.17.16-.21.31C24.4,50.6,24.86,50.44,24.76,50.36ZM57.59,60c-1.07.26-2.94-.21-4,.54C55,60.61,56.62,61.64,57.59,60ZM26.47,50.48c3.25.1,7.13.51,10.45.28,2,.18,4.23.1,6.32.09-.39-.36-2-.09-2.35-.54a4.88,4.88,0,0,1-2.39-.16c-.19.27-.65,0-.84-.1-.6.31-1.89.06-2.91-.06-3.21.24-6.66,0-9.74.46A1.92,1.92,0,0,0,26.47,50.48Zm-5-3.24c-1,0-2.42,0-2.92.53A7,7,0,0,0,21.47,47.24ZM54.41,58.52c-.73-.38-1.12,0-1.83-.36a.59.59,0,0,0,.07-.46c.17-.16.84,0,.7-.34-.46.2-1.17-.13-1.49.35.27.54.19,1.26.55,1.76C52.86,58.71,54,59.28,54.41,58.52Zm2.76.49c-.52-.14-.5-.1-1-.25-.09.23.08.23-.12.35a3.5,3.5,0,0,0-2.51.48A8.59,8.59,0,0,0,57.17,59ZM22,47.34c.15-.37-.45-.29-.47-.06A.58.58,0,0,0,22,47.34Zm3.54.47c-.38-.14-.76-.29-.9.07C25.05,48.06,25.28,47.87,25.56,47.81Zm32.3,10.36c.47-.43,2-.25,1.94-.78-1,.48-2.38-.36-3.07.38a3.63,3.63,0,0,0-2.07.34C55.81,58.33,56.7,58,57.86,58.17Zm-3.65-1.29c-.39.2-1.59-.15-2.13.23C52.86,57.28,54,57.39,54.21,56.88Zm-20.62-8c-1.17-.1-2.94-.49-4.08-.08C30.62,48.78,32.39,49.22,33.59,48.89Zm7.76,3.73a.46.46,0,0,1,.18-.23c-.45-.13-.9-.27-1.11.1C40.79,52.68,41,52.32,41.35,52.62Zm13.38,1.7c-.5.28-2.41.19-3.45.34a1.44,1.44,0,0,0,.16.93A53.86,53.86,0,0,1,59.29,55c0,.18-.18.13-.27.2.47.28.52-.31.88-.28.35.41,1.33-.18,1.74.33a38.43,38.43,0,0,1-6.88.39c-.93.52-2.36,0-3.19.73,4.12.25,8.15-.55,12.56-.15.35-.53.93-.57,1.33-1-.15-.07-.47-.07-.28-.29-1.29,0-2.21.68-3.39.17.6-.25,1.73.11,1.93-.49a54.93,54.93,0,0,0-6.7-.12c-.11-.09-.18-.21-.29-.3-.22.5-.82.19-1.26.24,0-.09.11-.08.15-.14C55.33,54.2,54.64,54.1,54.72,54.33Zm5.16,4.17c-.35.27-.24-.13-.49-.27-.24.39-.49.16-.71.33C59,59,60,58.85,59.89,58.5Zm-17-6.11c-.43-.15-.82-.21-1,.12C42.2,52.41,42.54,52.68,42.9,52.39Zm.76.07c-.25-.07-.57-.29-.67,0C43.24,52.49,43.56,52.7,43.66,52.46Zm4.53.72c-.39,0-.81-.33-1.17,0A1.23,1.23,0,0,0,48.19,53.18ZM33.78,47.79a1.69,1.69,0,0,0-1.11.09C33.09,48,33.54,48.1,33.78,47.79Zm15.14,5.26-.12.34.35.12C49.38,53.22,49,53.21,48.92,53.05ZM35,48a.9.9,0,0,0-.84-.1A1.82,1.82,0,0,0,35,48Zm27.17,8.55c-.66-.11-2.18.18-2.07.34A2.66,2.66,0,0,1,61.4,57c.15.12-.24.5.1.53a1.4,1.4,0,0,0,1.32-.71C62.6,56.87,62.39,56.6,62.14,56.56ZM36.51,48.07c-.24-.09-1.1-.33-1.37,0C35.44,48.27,36.21,48.62,36.51,48.07ZM58,52.85c-.26.27-1.45.1-1.63-.09-1.28.73-3.36-.07-4.76.75,3.74.48,7.17-.5,10.61-.15,1.58-.51,3.26-.09,5-.37-.17-.14.24-.29.39-.26,0,.25-.53.19-.12.35.56-.14,1.8.34,1.93-.2-.24.15.06-.51,0-.49a32,32,0,0,0-4.66-.09c-1.1-.29-2.23.16-3,0,.13.08.28,0,.15-.14-.12.19-.39.08-.61.07-.2.46.35-.16.31.21-.15.19-.5,0-.7,0s.13.45-.15.43l-.26-.09c.07-.11.18-.12.21-.32-.21,0-.4,0-.52.11.16,0,.17.16.08.32a.52.52,0,0,0-.38,0c0-.13-.07-.21,0-.38-.69-.18-1-.45-1.37,0,.44,0,.84.26,1.25.05a.44.44,0,0,0,0,.29c-.45,0-1.31.33-1.51-.15C58.15,53.14,58.07,52.6,58,52.85ZM44.25,48.57c-1.56-.23-3,0-4.77-.32-.1.46-1-.08-.91.36C40.21,48.66,42.62,49,44.25,48.57Zm1.89,1.55c.4-.44,1,0,1.72.12a20.26,20.26,0,0,0,6-.21c-1.1-.32-2.91.58-4-.13.45-.51,1.31-.18,1.85-.52C50.63,48.37,49.4,49,48,49c-.29.13.07.21-.07.47-2.16.1-4.6-.36-6.64,0C43.11,50,44.38,49.34,46.15,50.12Zm4.35,1.24a4.08,4.08,0,0,0-1.28,0C49.66,51.44,50.28,51.81,50.5,51.36Zm4.51.52c-1.14-.24-1.83.07-2.8-.11,0,.22-.22.13-.24.4A5.59,5.59,0,0,0,55,51.88ZM42.3,47.19c-.4,0-.88-.19-1,0C41.65,47.34,42.31,47.33,42.3,47.19Zm21.54,4.3c.19,0-.12.52.11.24,0-.24,0-.39.3-.29.11.24-.1.16-.21.32.47,0,.4-.24.88-.28a.42.42,0,0,1-.18.23c.28.06.37-.38.47.07.11-.37.12-.19.2,0,.2-.16.11-.39.24-.4s.12.5.29.3c-.09,0-.06-.19.06-.17.09.57,0,0,.29,0,0,.1-.1.24,0,.29.25,0-.07-.31.21-.32.37.31.34.08.67,0a.45.45,0,0,1-.18.23c1.58.28,2.9,0,4.54.43a2,2,0,0,0,.36-.46c-.25,0-.57,0-.58-.3-.25.19-.71.25-.84-.1.35.1.37.1.64-.16a1.51,1.51,0,0,0,2-.25,95.8,95.8,0,0,0-18.45.21c1.09.27,1.9,0,3,.17-.14.09-.17.18,0,.29.12-.37.12-.19.21,0,.06-.14.1-.31.27-.2,0,.09,0,.13,0,.21-.35.05-.81.22-1.14-.11-.24.21-.82,0-1.09.59a34.08,34.08,0,0,1,4.84-.14c.14-.47-.47-.13-.28-.59.35.46,1.24-.23,1.3.46.22-.77.93,0,1.19-.07-.09,0,0-.17,0-.29s.43,0,.52.18c-.17.3-.27-.17-.44.14C63.45,51.9,63.63,51.67,63.84,51.49ZM44,47.11c-.36.35-1.17-.23-1.52.14C43,47.36,44.19,47.52,44,47.11Zm14.15,5.3c-.33-.1-.38,0-.61-.22l-.09.26C57.71,52.51,58,52.59,58.14,52.41Zm9.49,1.89c.12-.41,1.08-.3.74-.71-1.73.46-4.14.18-5.74.21C64.18,54.52,65.92,53.92,67.63,54.3ZM48.81,48.13c-.24-.15-.45-.11-.79,0C48.2,48.44,48.64,48.32,48.81,48.13Zm16,1.38c-.08.23-.23.5,0,.58s0-.61.39-.54c-.09.5.18-.27.41-.05s-.37.43,0,.58c.3,0-.05-.35.1-.55a87,87,0,0,1,9,.46c.26-.24.77-.48.4-.84-.41.29-1.08.06-1.66,0,.08-.18,0-.3-.17-.35s-.68.25-.75-.07c-.48.13-.68.26-1.14-.11-.47.51-.93,0-1.61.12-.09.11-.06.49-.24.4,0-.15,0-.36-.26-.38-.2.37-.67.3-1.28,0-.78.24-2.15-.07-3.09.18,0-.13-.06-.21,0-.38.21,0,.19.35.29,0-2.36-.5-5.13-.13-7.28-.13-1.49-.26-2.51.5-4.11,0-.16.4.46,0,.23.47-.77-.27-1.53.12-2.39-.16.18.81,1.33.17,2,.62.53-.3,1.28-.15,1.87-.31.12.06.1.19.2.27.86-.72,2.39-.14,3.21-.52.54.22.72-.31,1.34.09A2.34,2.34,0,0,1,62,48.69c-.45,1-1.72.22-2.4.71.06,0,.17.06.14.15,1.14,0,2.09-.32,3.17.15C63.53,49.27,64.14,49.55,64.83,49.5ZM50,48.36c2.33,0,5.78-.84,7.91-.52,1.41-.38,3.17,0,4.61-.32-4.45-.16-9-.52-13.06.16C49.63,47.91,49.58,48.35,50,48.36Zm6.59,1.55c-.29.15-.74,0-1,.13C56,50.27,56.65,50.2,56.58,49.9Zm1.66,0c-.14.31-.72-.3-.76.22C57.76,50.2,58.34,50.12,58.24,49.9Zm0-.2c.07-.48-1-.21-.87,0A4.39,4.39,0,0,1,58.22,49.7ZM55.1,46.93c2.16-.43,4.81.1,6.91-.2-.52,0-1-.36-1.63-.38,0,0-.13.22-.17.23h-.58c-.73,0-.55-.45-.79,0-2.11-.39-3.42.13-5.76-.28,0,.09-.07.25-.18.23a9.4,9.4,0,0,0-3.44.34C51.45,47.16,52.93,46.34,55.1,46.93Zm4.23,2.38a.59.59,0,0,1-.46-.06c-.18.25.24.22.26.38C59,49.29,59.56,49.48,59.33,49.31Zm-8-3.21c.52-.18,1.16-.1,1.61-.41.62,0,1.83.22,2.22-.19-1.79.08-3.82-.36-5.48,0a.6.6,0,0,0-.85.19C49.93,46.31,50.38,45.63,51.38,46.1Zm19.23,6.42a.77.77,0,0,1-.61-.21c0,.31-.29.1-.38.25C69.84,52.84,70.47,52.9,70.61,52.53ZM52.45,45c.52-.5,1.6.27,1.73-.46-.31,0-.48,0-.81-.19-1.16.41-3-.27-4.24.36C50.42,45.3,51.41,44.47,52.45,45Zm-1.93-1.17c-.84.18-1.13-.35-1.91-.68.11-.2-.09-.25.07-.47l-.61-.21A1.93,1.93,0,0,0,48.13,44,3.59,3.59,0,0,0,50.52,43.85Zm6.12,1.77a1.49,1.49,0,0,0-.91.07C56,45.69,56.44,45.87,56.63,45.62Zm13.26,4.5c-.27,0-.18-.2-.4-.24,0,.31-.29.1-.39.25C69.35,50.09,69.65,50.16,69.89,50.12ZM55.28,44.75c-.19-.22-.46-.07-.67-.33,0,.26-.24.12-.3.28C54.7,44.85,55.07,45,55.28,44.75Zm-2.55-.81a.38.38,0,0,0-.58,0C52.4,44,52.59,44.07,52.73,43.94Zm5.74,1.74c-.4-.18-.62,0-.9.07C57.95,45.9,58.18,45.74,58.47,45.69ZM51.17,43.1c.13-.18-1.3-.34-1.17,0A5.56,5.56,0,0,1,51.17,43.1Zm-1.59-.76c1.64-.15,3.75.4,5.68.26-1.92-1-3.92-.51-5.37-1.12-.65.48-1.47-.27-2.25.28C48,42.64,49.07,42.39,49.58,42.34Zm26,8.24c-.33-.13-.5.07-.79,0-.09.22,0,.32.14.44C75.14,50.82,75.43,50.84,75.59,50.58ZM48.73,41.16c.3.07-.24-.39.12-.35s.91.61.64.13a31.94,31.94,0,0,0,4.86.35,43.6,43.6,0,0,0-7.3-.92C47.14,40.94,48.09,41,48.73,41.16Zm6.57,2.13c-.22,0-.49-.12-.61.07C55,43.46,55.22,43.57,55.31,43.3Zm21.82,6.26c-.42-.36-.88.18-1.29.32-.16.24.06.31-.1.55A1.46,1.46,0,0,0,77.13,49.56Zm-15.73-5c-.14.15-.5-.15-.61.07.12.06.1.19.2.26C61,44.61,61.69,45,61.4,44.58Zm6.55,1.93a1.16,1.16,0,0,1-.81-.19c0,.14-.26.42-.07.47C67.21,46.36,67.8,46.88,67.95,46.5Zm-5.53-1.76a.45.45,0,0,0-.7,0,.61.61,0,0,1,.4.24C62.14,44.77,62.35,44.91,62.42,44.74Zm7.13,1.94A1.71,1.71,0,0,0,68,46.62c.11.09.48.06.4.24-.13-.05-.15.23,0,.08C68.68,46.68,69.22,46.9,69.55,46.68Zm6.72,2a17,17,0,0,0-2.24-.3c.24.05.24.22.14.44C74.85,49,76.12,49.43,76.27,48.66Zm-30-10.23c-.07-.16-.35-.22-.58-.3-.13.32.25.41.37.62A.51.51,0,0,1,46.28,38.44Zm24.2,8.37a1.85,1.85,0,0,0-.84-.1A1.07,1.07,0,0,0,70.48,46.81ZM77.72,49c-.18.06-.54-.22-.61.08A.52.52,0,0,0,77.72,49Zm-2.81-.9c.59-.25,1.34.39,1.92.1a17.64,17.64,0,0,0-2-.62C74.74,47.79,74.66,48,74.91,48.09ZM46.64,38c.15-.22-.11-.23-.05-.41-.59,0-1.11-.48-1.82-.94C44.57,37.45,46.15,37.81,46.64,38Zm5.22,1a9.23,9.23,0,0,0-2.38-.74c-.22.41.36,0,.29.3-.32.29-.48,0-.79,0l.12-.35c-.32-.12-.47.11-.68.25C49.36,39.12,51,38.78,51.86,38.95Zm9,3a1.7,1.7,0,0,0-1.13-.11C60,41.74,60.66,42.27,60.86,41.94ZM47.51,36.62c-.21.53.62.27.69.53C48.46,36.62,47.89,36.88,47.51,36.62Zm-.29,0c-.27.09-.78-.54-.75-.07C46.53,36.45,47.33,37,47.21,36.61Zm5.25,1.47a.52.52,0,0,1-.58-.3c0,.46-.62-.29-.65.17C51.65,38.09,52.54,38.45,52.46,38.09Z"/><text x="0" y="115" fill="#0d97ff" font-size="5px" font-weight="bold" font-family="'Helvetica Neue', Helvetica, Arial-Unicode, Arial, Sans-serif"></text><text x="0" y="120" font-color="#0d97ff" font-size="5px" font-weight="bold" font-family="'Helvetica Neue', Helvetica, Arial-Unicode, Arial, Sans-serif"></text></svg>