<svg xmlns="http://www.w3.org/2000/svg" xmlns:xlink="http://www.w3.org/1999/xlink" version="1.1" x="0px" y="0px" viewBox="0 0 100 125" enable-background="new 0 0 100 100" xml:space="preserve"><g><path d="M86.3,42.3c0.3,0.4,0.8,0.7,1.2,0.7c0.3,0,0.6-0.1,0.8-0.3l6-4c0.7-0.5,0.9-1.4,0.4-2.1c-0.5-0.7-1.4-0.9-2.1-0.4l-6,4   C86,40.7,85.9,41.6,86.3,42.3z"/><path d="M84.6,35.9c0.4,0,0.8-0.2,1.1-0.5l6-6.4c0.6-0.6,0.5-1.6-0.1-2.1c-0.6-0.6-1.6-0.5-2.1,0.1l-6,6.4   c-0.6,0.6-0.5,1.6,0.1,2.1C83.8,35.7,84.2,35.9,84.6,35.9z"/><path d="M95.1,59l-6.3-2.3c-0.8-0.3-1.6,0.1-1.9,0.9c-0.3,0.8,0.1,1.6,0.9,1.9l6.3,2.3c0.2,0.1,0.3,0.1,0.5,0.1   c0.6,0,1.2-0.4,1.4-1C96.3,60.1,95.9,59.3,95.1,59z"/><path d="M92.3,69.2l-7-5.2c-0.7-0.5-1.6-0.4-2.1,0.3s-0.4,1.6,0.3,2.1l7,5.2c0.3,0.2,0.6,0.3,0.9,0.3c0.5,0,0.9-0.2,1.2-0.6   C93.1,70.6,93,69.7,92.3,69.2z"/><path d="M97.7,48c-0.1-0.8-0.8-1.4-1.7-1.3l-6.9,0.8c-0.8,0.1-1.4,0.8-1.3,1.7c0.1,0.8,0.7,1.3,1.5,1.3c0.1,0,0.1,0,0.2,0l6.9-0.8   C97.2,49.5,97.8,48.8,97.7,48z"/><path d="M14.4,56.1c-0.5-0.7-1.4-0.9-2.1-0.4l-6,4c-0.7,0.5-0.9,1.4-0.4,2.1c0.3,0.4,0.8,0.7,1.2,0.7c0.3,0,0.6-0.1,0.8-0.3l6-4   C14.6,57.7,14.8,56.8,14.4,56.1z"/><path d="M15,63l-6,6.4C8.4,70,8.5,71,9.1,71.5c0.3,0.3,0.7,0.4,1,0.4c0.4,0,0.8-0.2,1.1-0.5l6-6.4c0.6-0.6,0.5-1.6-0.1-2.1   C16.5,62.3,15.6,62.4,15,63z"/><path d="M5.6,39.4l6.3,2.3c0.2,0.1,0.3,0.1,0.5,0.1c0.6,0,1.2-0.4,1.4-1c0.3-0.8-0.1-1.6-0.9-1.9l-6.3-2.3   c-0.8-0.3-1.6,0.1-1.9,0.9C4.4,38.2,4.8,39.1,5.6,39.4z"/><path d="M8.3,29.2l7,5.2c0.3,0.2,0.6,0.3,0.9,0.3c0.5,0,0.9-0.2,1.2-0.6c0.5-0.7,0.4-1.6-0.3-2.1l-7-5.2c-0.7-0.5-1.6-0.4-2.1,0.3   C7.5,27.7,7.7,28.7,8.3,29.2z"/><path d="M12.8,49.3c-0.1-0.8-0.8-1.4-1.7-1.3l-6.9,0.8c-0.8,0.1-1.4,0.8-1.3,1.7c0.1,0.8,0.7,1.3,1.5,1.3c0.1,0,0.1,0,0.2,0   l6.9-0.8C12.3,50.8,12.9,50.1,12.8,49.3z"/><path d="M83.5,44.8c-0.1-0.1-1.1-2.5-4-4.3c0.1-0.1,0.1-0.2,0.2-0.4c0,0,0-0.1,0-0.1c0.1-0.3,1.8-7.4-3.5-12.6   c-3.7-3.7-15.2-6.6-26.1-6.6c-5.9,0-14.3,0.8-20.9,4.9c-0.8,0.5-9,5.4-7.8,15.9c0,0.3,0.1,0.7,0.3,1.1c-3.3,2.4-4.8,4.3-4.6,5.9   c0.1,0.4,0.3,1.4,1.7,1.9c0.5,0.2,1.1,0.3,1.7,0.3c0.4,0,0.8,0,1.1-0.1l-2,4.1c-0.2,0.5-0.2,1,0.1,1.5c0.2,0.3,0.6,0.6,0.9,0.7   c0.3,2.7,1.4,4.7,3.5,6.1c-0.2,0.5-0.4,1.2-0.6,1.8c-1.2,0.6-2.6,1.6-2.8,3.1c0,0.1,0,0.2,0,0.4c-0.8,5.6,1.1,9.2,5.6,10.8   c4.1,1.4,11.3,3.3,21.7,3.3c5.2,0,11.2-0.5,17.9-1.7c11.4-2,13.8-4.1,14-8.8c0.1-0.1,0.3-0.2,0.4-0.3c0.4-0.5,0.5-1.1,0.2-1.7   L80,68.3c0-0.3,0-0.5,0-0.8c0-0.9-0.4-1.6-1.1-2.2c-0.1-0.1-0.3-0.2-0.4-0.3L77,62.3C80,60.5,80.3,58,80,54c0-0.4-0.1-0.9-0.1-1.4   c0-0.3-0.1-0.6-0.2-0.9c0.4-0.1,0.7-0.1,1.1-0.2c0.5-0.1,0.9-0.5,1.1-1l1.6-4.7C83.6,45.5,83.6,45.1,83.5,44.8z M65.6,77.5   C46,81,33.3,78,27.5,76c-4-1.4-4.1-4.6-3.6-7.6c0-0.1,0-0.3,0.1-0.4c0-0.1,0.1-0.2,0.3-0.3c0.7,0.4,2,0.9,4,1.5l0.1,2.7   c0,0.5,0.3,0.9,0.6,1.2c0.3,0.2,0.6,0.3,0.9,0.3c0.1,0,0.3,0,0.4-0.1c0.1,0,3.1-1,6.8-2.1c8.9,1.4,21.3,1.9,33.8-1.9   c2.7,0.7,4.9,1.3,6.3,1.8C77.1,74.6,75.6,75.7,65.6,77.5z M22.6,47.1c-0.6,0.2-1.3,0.5-2,0.5c0.7-0.8,2-1.9,3.5-3   c0.5,0.3,1.2,0.5,1.9,0.8l-0.2,0.3l-0.6,1.1c-0.3-0.1-0.6-0.2-0.9-0.2c-0.3,0-0.5,0.1-0.8,0.1C23.2,46.8,22.9,46.9,22.6,47.1z    M30.8,28.2c4.1-2.5,9-3.6,13.5-4.1c0.2,0.5,0.7,0.8,1.3,0.8h0c0.7,0,1.2-0.4,1.4-1.1c1.1-0.1,2.1-0.1,3.1-0.1c0.6,0,1.1,0,1.7,0   C51.4,24,51,24.6,51,25.1c0,0.8,0.7,1.5,1.5,1.5h0c0.8,0,1.5-0.7,1.5-1.5c0-0.5-0.3-1-0.7-1.3c2.2,0.1,4.4,0.3,6.5,0.7   c-0.1,0.2-0.1,0.4-0.1,0.6c0,0.8,0.7,1.5,1.5,1.5h0c0.8,0,1.5-0.7,1.5-1.5c0,0,0-0.1,0-0.1c5.5,1.1,9.8,2.8,11.4,4.5   c3.8,3.8,2.9,8.8,2.7,9.6c0,0,0,0,0,0c-0.2,0.3-0.7,0.7-1.6,1.1c-0.5,0.2-1.1,0.4-1.9,0.7c-0.9,0.3-1.9,0.5-3.1,0.8   c-1,0.2-2.2,0.5-3.4,0.7c-0.3,0.1-0.7,0.1-1,0.2c-0.8,0.1-1.5,0.2-2.4,0.4c-0.7,0.1-1.4,0.2-2.1,0.3c-0.4,0-0.8,0.1-1.2,0.1   c-0.7,0.1-1.5,0.2-2.2,0.2c-1.1,0.1-2.2,0.2-3.3,0.3c-3.4,0.2-7.1,0.4-10.9,0.4c0,0,0,0,0,0c-7.7,0-12.6-0.6-15.6-1.4   c-1.1-0.3-1.9-0.6-2.5-0.8c-0.7-0.3-1-0.6-1.1-0.9c0-0.1,0-0.2,0-0.3C23.6,32.2,30.4,28.4,30.8,28.2C30.7,28.3,30.8,28.2,30.8,28.2   z M31,65.5l0-0.3c0.5,0.1,1.1,0.3,1.6,0.4c2.4,0.5,5.3,1,8.6,1.3c-3.8,1.1-7.8,2.3-10,3L31,65.5z M74.7,64.6l0.8,1.5l0.7,1.4   l0.1,0.1l0.1,0.2c-0.2-0.1-0.4-0.1-0.6-0.2c-0.1,0-0.2-0.1-0.3-0.1c-1.3-0.4-2.8-0.8-4.4-1.2c0,0,0,0,0,0c-1.4-0.3-2.8-0.7-4.3-1   c3.1-0.6,5.6-1.2,7.4-1.8L74.7,64.6z M70.2,51.8l-0.6,2.9l-0.6,2.7c-0.8-0.6-1.7-1.2-2.8-1.9c-1.4-0.8-3-1.7-4.8-2.3   c0.7-0.4,1.2-1.1,1.5-2c0,0,0-0.1,0-0.1c0.1-0.3,0.2-0.7,0.2-1.1c1.3,0.5,2.8,0.9,4.3,1.2C68.4,51.5,69.3,51.7,70.2,51.8z    M60.2,48.9c0,0.2,0,0.5,0,0.6c0,0,0,0,0,0c0,0.6-0.2,1-0.3,1.1c-0.2-0.1-0.4-0.2-0.5-0.4C58,49.5,56.3,49,54.7,49   c-1.9,0-3.4,0.7-4,2c-0.2,0.3-0.3,0.6-0.4,0.9c0,0.1,0,0.2-0.1,0.2c-0.1,0.1-0.2,0.1-0.5,0.1c-0.1,0-0.1,0-0.2,0c0,0-0.1,0-0.1,0   c-0.7-0.1-1.6-0.5-2.4-1.3c0,0-0.1-0.1-0.1-0.1c-0.5-0.4-1-0.7-1.5-0.7c-0.6,0-1.1,0.2-1.4,0.6c-0.4,0.5-0.7,1.1-0.9,1.9   c-0.1,0.5-0.2,1-0.3,1.5c0,0,0,0,0,0c-0.1,0.4-0.2,0.9-0.3,1.5c-0.1,0.4-0.2,0.8-0.3,1.1c-0.2,0.5-0.3,1-0.5,1.1   c-0.3-0.2-0.5-0.6-0.8-1.3c-0.1-0.3-0.2-0.6-0.4-0.9c-0.2-0.5-0.3-1-0.5-1.5c-0.1-0.5-0.2-1-0.3-1.5c-0.1-0.6-0.2-1.1-0.2-1.6   c0-0.2,0-0.5,0-0.7c0-0.1,0-0.3,0-0.4c-0.4-2-1.8-2.3-2.5-2.3c-0.7,0-1.5,0.2-3,1.1c-0.6,0.3-1.2,0.8-2,1.3c-0.6,0.4-1.2,0.9-2,1.5   c-1.4,1.2-2.1,1.3-2.4,1.3c-0.4,0-0.7-0.7-1-2c-0.1-0.3-0.1-0.6-0.1-0.9c0-0.1,0-0.2,0-0.2c0-0.1,0.1-0.1,0.1-0.2l0.2-0.3l0.8-1.3   l1-1.6l0.4-0.7c1.2,0.2,2.7,0.4,4.4,0.6c2.5,0.2,5.5,0.4,9.2,0.4l0.3,1.8c0.1,0.4,0.3,0.8,0.7,1c0.2,0.2,0.5,0.3,0.8,0.3   c0.1,0,0.2,0,0.2,0c0.3,0,0.6-0.2,0.8-0.4c0.4-0.3,0.5-0.8,0.5-1.3l-0.2-1.3c2.9-0.1,6.8-0.2,11-0.5c0.6-0.1,1.3-0.1,1.9-0.2   c0.2,0,0.3,0,0.5,0c0.1,0.2,0.2,0.3,0.3,0.4C59.9,47.7,60.1,48.4,60.2,48.9z M36.6,51.3c0,0,0,0.1,0,0.2c0,0.4,0.1,1,0.2,1.7   c-1.1,0-2.2,0.1-3.3,0.1C35.2,52,36.1,51.5,36.6,51.3z M23.9,52.7c0,0.1,0,0.2,0.1,0.2c0.1,0.2,0.1,0.4,0.2,0.6c-0.1,0-0.3,0-0.4,0   c-0.1,0-0.2,0-0.3,0L23.9,52.7z M76.7,44.4c-1,0.1-1.9,0.1-2.8,0c-0.6,0-1.1-0.1-1.6-0.1c0,0,0,0,0,0c0,0,0,0,0,0   c0.2-0.1,0.4-0.1,0.6-0.2c0.3-0.1,0.7-0.2,1-0.3c1.2-0.4,2.3-0.8,3.1-1.3c0.9,0.5,1.7,1,2.2,1.5C78.4,44.2,77.5,44.3,76.7,44.4z    M36.2,56.2c0.4,0.1,0.9,0.1,1.3,0.2c0.8,2.4,2.1,4.7,4.2,4.7c0.4,0,0.9-0.1,1.3-0.3c1.3-0.6,1.9-2.1,2.3-3.6   c4.9,0.3,10.4,0.2,16-0.7c1.7,0.7,3.1,1.6,4.3,2.3c2,1.3,3.3,2.5,3.3,2.5c0.2,0.2,0.5,0.3,0.9,0.4c-1.2,0.3-2.6,0.5-4.3,0.8   c-2.2,0.4-4.3,0.7-6.3,0.9c-4.5,0.5-8.6,0.7-12.2,0.7c-5-0.1-9.2-0.6-12.6-1.2c-2.9-0.6-5.2-1.3-7-1.9c-2.5-0.9-3.5-2.6-3.7-4.4   C26.6,56.5,31.4,56.4,36.2,56.2z M75.6,59.7c-0.4,0.3-0.8,0.5-1.3,0.7c-0.4,0.2-0.9,0.4-1.4,0.5c-0.6,0.2-1.2,0.4-2,0.6   c0.3-0.2,0.5-0.5,0.6-0.9l0.3-1.7L72,58l0.3-1.4l0.6-2.8c1-0.3,2.1-0.7,3.1-1.1c0.4,0,0.8,0.1,1,0.2c0,0.5,0,0.9,0.1,1.3   C77.2,56.8,77.3,58.4,75.6,59.7z M79.4,48.8c-0.9,0.2-1.7,0.3-2.6,0.3c-1,0.1-2,0.1-2.9,0c-0.5,0-1-0.1-1.5-0.1   c-0.5,0-1-0.1-1.5-0.2c-0.7-0.1-1.5-0.2-2.2-0.4c-2.3-0.5-4.4-1.2-6.1-1.8c-0.1-0.2-0.2-0.4-0.3-0.6c0.5-0.1,1-0.1,1.5-0.2   c0.5-0.1,1-0.1,1.6-0.2c0.1,0.1,0.2,0.1,0.4,0.2c1.4,0.6,3.1,1,5.1,1.3c0.1,0,0.2,0,0.3,0.1c0.5,0.1,1,0.1,1.5,0.1   c0.5,0,1,0.1,1.5,0.1c0.2,0,0.4,0,0.7,0c0.6,0,1.2,0,1.8-0.1c1.1-0.1,2.2-0.2,3.3-0.3L79.4,48.8z"/><path d="M41,27.8L41,27.8c0.9,0,1.5-0.7,1.5-1.5s-0.7-1.5-1.5-1.5c-0.8,0-1.5,0.7-1.5,1.5S40.2,27.8,41,27.8z"/><path d="M56.7,28.8L56.7,28.8c0.9,0,1.5-0.7,1.5-1.5s-0.7-1.5-1.5-1.5s-1.5,0.7-1.5,1.5S55.9,28.8,56.7,28.8z"/><path d="M35.8,33L35.8,33c0.9,0,1.5-0.7,1.5-1.5S36.6,30,35.8,30c-0.8,0-1.5,0.7-1.5,1.5S35,33,35.8,33z"/><path d="M51.2,33.6L51.2,33.6c0.9,0,1.5-0.7,1.5-1.5s-0.7-1.5-1.5-1.5c-0.8,0-1.5,0.7-1.5,1.5S50.3,33.6,51.2,33.6z"/><path d="M66.4,29.4L66.4,29.4c0.9,0,1.5-0.7,1.5-1.5s-0.7-1.5-1.5-1.5c-0.8,0-1.5,0.7-1.5,1.5S65.5,29.4,66.4,29.4z"/><path d="M47.1,29.1L47.1,29.1c0.9,0,1.5-0.7,1.5-1.5s-0.7-1.5-1.5-1.5c-0.8,0-1.5,0.7-1.5,1.5S46.3,29.1,47.1,29.1z"/></g><text x="0" y="115" fill="#000000" font-size="5px" font-weight="bold" font-family="'Helvetica Neue', Helvetica, Arial-Unicode, Arial, Sans-serif"></text><text x="0" y="120" fill="#000000" font-size="5px" font-weight="bold" font-family="'Helvetica Neue', Helvetica, Arial-Unicode, Arial, Sans-serif"></text></svg>