<?xml version="1.0" encoding="utf-8"?>
<!-- Generator: Adobe Illustrator 20.1.0, SVG Export Plug-In . SVG Version: 6.00 Build 0)  -->
<svg version="1.1" id="Layer_1" xmlns="http://www.w3.org/2000/svg" xmlns:xlink="http://www.w3.org/1999/xlink" x="0px" y="0px"
	 viewBox="0 0 223.2 81" style="enable-background:new 0 0 223.2 81;" xml:space="preserve">
<style type="text/css">
	.st0{fill:#498DCB;}
	.st1{fill:#08AF8E;}
</style>
<g>
	<path class="st0" d="M16.4,28C9.3,28,5,22.7,5,16.4v-0.1C5,10.2,9.5,4.6,16.2,4.6c3.7,0,6,1.1,8.3,3l-1.1,1.3
		c-1.8-1.5-3.8-2.7-7.3-2.7c-5.5,0-9.3,4.6-9.3,10.1v0.1c0,5.8,3.6,10.2,9.7,10.2c2.9,0,5.6-1.2,7.2-2.6v-6.5h-7.6v-1.5h9.2v8.7
		C23.3,26.4,20.1,28,16.4,28z"/>
	<path class="st0" d="M41.7,36.6c-6.8,0-11.3-5.5-11.3-11.6v-0.1c0-6.2,4.6-11.7,11.4-11.7c6.8,0,11.3,5.5,11.3,11.6c0,0,0,0,0,0.1
		C53.1,31.1,48.5,36.6,41.7,36.6z M51.3,24.9c0-5.6-4.1-10.2-9.6-10.2s-9.6,4.5-9.6,10.1v0.1c0,5.6,4.1,10.2,9.6,10.2
		C47.3,35.1,51.3,30.5,51.3,24.9L51.3,24.9z"/>
	<path class="st0" d="M69.1,28c-6.8,0-11.3-5.5-11.3-11.6v-0.1c0-6.2,4.6-11.7,11.4-11.7c6.8,0,11.3,5.5,11.3,11.6c0,0,0,0,0,0.1
		C80.5,22.5,75.9,28,69.1,28z M78.8,16.3c0-5.6-4.1-10.2-9.6-10.2c-5.6,0-9.6,4.5-9.6,10.1v0.1c0,5.6,4.1,10.2,9.6,10.2
		C74.7,26.5,78.8,22,78.8,16.3L78.8,16.3z"/>
	<path class="st0" d="M93.7,27.6h-7.5V5h7.5c7.1,0,12,4.9,12,11.2v0.1C105.7,22.7,100.8,27.6,93.7,27.6z M104,16.3
		c0-5.4-4-9.7-10.3-9.7h-5.8v19.5h5.8C100,26.1,104,21.8,104,16.3L104,16.3z"/>
	<path class="st1" d="M121.4,28c-6.6,0-11.6-5.1-11.6-11.6v-0.1c0-6.4,4.8-11.7,11.8-11.7c4.3,0,6.8,1.4,8.9,3.5l-3.2,3.6
		c-1.7-1.6-3.5-2.5-5.8-2.5c-3.8,0-6.6,3.2-6.6,7v0.1c0,3.9,2.7,7.1,6.6,7.1c2.6,0,4.2-1,5.9-2.6l3.2,3.2
		C128.3,26.5,125.7,28,121.4,28z"/>
	<path class="st1" d="M134.6,27.6V5h17v4.4h-12.1V14h10.6v4.4h-10.6v4.7h12.3v4.4H134.6z"/>
	<path class="st1" d="M172.1,27.6l-10.9-14.4v14.4h-4.9V5h4.6l10.6,13.9V5h4.9v22.6H172.1z"/>
	<path class="st1" d="M191.9,9.6v18h-5v-18h-6.9V5h18.7v4.6H191.9z"/>
	<path class="st1" d="M210.2,27.9c-3.4,0-6.9-1.2-9.6-3.6l2.9-3.5c2,1.7,4.2,2.7,6.7,2.7c2,0,3.3-0.8,3.3-2.1v-0.1
		c0-1.3-0.8-1.9-4.6-2.9c-4.6-1.2-7.5-2.4-7.5-6.9v-0.1c0-4.1,3.3-6.8,7.9-6.8c3.3,0,6.1,1,8.4,2.9l-2.6,3.7c-2-1.4-4-2.2-5.9-2.2
		c-1.9,0-2.9,0.9-2.9,2v0.1c0,1.5,1,2,4.9,3c4.6,1.2,7.2,2.8,7.2,6.8v0.1C218.5,25.4,215.1,27.9,210.2,27.9z"/>
</g>
<path class="st0" d="M60.8,75h-7.7c-0.5,0-1-0.2-1.4-0.6c-0.4-0.4-0.6-0.9-0.6-1.4v-2.2H34.7V73c0,0.5-0.2,1-0.6,1.4
	c-0.4,0.4-0.9,0.6-1.4,0.6h-8.6c-1.1,0-1.9-0.8-2-1.9L22,66.8c-1.2-1-3.5-3.3-5.3-6.7c-0.7-1.3-1.1-2.9-1.4-4.4
	c-0.2-1-0.5-1.9-0.7-2.4c-0.3-0.6-0.6-1.1-1-1.4c-0.1-0.1-0.2-0.1-0.2-0.1c-0.8-0.3-1.4-1.1-1.3-2c0.1-1,0.8-1.7,1.7-1.8l1.6-0.2
	c1.2-2,4-6.3,8.3-9.7c1.4-1.1,2.9-2,4.4-2.7l0.8-0.4l0.2,0.8c1.7,5.6,6.9,9.6,12.8,9.6c6.6,0,12.2-4.7,13.2-11.3l0-0.3
	c0.5-2.8,2-4.5,4.2-4.5c1,0,3.1,5.5,3.5,7.3c0.4,0.3,0.7,0.5,1.1,0.8c4.1,3.4,5.8,7.1,6.5,9.3h2.4c0.5,0,1,0.2,1.4,0.6l0,0
	c0.4,0.4,0.6,0.9,0.6,1.4V58c0,0.5-0.2,1-0.6,1.4c-0.4,0.4-0.9,0.6-1.4,0.6h-4.6L62.7,67v6c0,0.5-0.2,1-0.5,1.4
	C61.8,74.8,61.3,75,60.8,75z M33.2,69.4h19.3V73c0,0.1,0.1,0.3,0.2,0.4c0.1,0.1,0.2,0.1,0.4,0.1h7.7c0.1,0,0.3-0.1,0.4-0.2
	c0.1-0.1,0.1-0.2,0.1-0.4v-6.5l6.2-8h5.3c0.1,0,0.3-0.1,0.4-0.1c0.1-0.1,0.2-0.2,0.2-0.4v-9.3c0-0.1-0.1-0.3-0.2-0.4
	c-0.1-0.1-0.2-0.1-0.4-0.1h-3.5l-0.1-0.5c-0.5-1.9-2.1-5.6-6.2-9.1c-0.4-0.4-0.8-0.7-1.2-0.9l-0.3-0.2l0-0.4
	c-0.1-1.5-1.9-5.1-2.5-6.3c-1.8,0.3-2.3,2.5-2.4,3.5l-0.1,0.3c-1.2,7.1-7.3,12.2-14.6,12.2c-6.2,0-11.8-4-13.9-9.8
	c-1.2,0.6-2.3,1.3-3.4,2.2c-4.3,3.4-7.2,7.8-8.2,9.6l-0.2,0.3l-2.3,0.3c-0.2,0-0.4,0.2-0.5,0.5c0,0.2,0.2,0.5,0.4,0.5l0.5,0.1v0.2
	c0,0,0,0,0,0c0.6,0.5,1.1,1.1,1.4,1.9c0.3,0.6,0.5,1.6,0.8,2.7c0.3,1.4,0.7,2.9,1.3,4.1c1.8,3.4,4.3,5.7,5.2,6.5l0.2,0.2l0.2,6.9
	c0,0.3,0.2,0.5,0.5,0.5h8.6c0.1,0,0.3-0.1,0.4-0.2c0.1-0.1,0.1-0.2,0.1-0.4V69.4z"/>
<circle class="st0" cx="62.6" cy="46.8" r="1.9"/>
</svg>
