<svg xmlns="http://www.w3.org/2000/svg" xmlns:xlink="http://www.w3.org/1999/xlink" version="1.1" x="0px" y="0px" viewBox="0 0 100 125" enable-background="new 0 0 100 100" xml:space="preserve"><path d="M50.7,95.7v-1.7c-2.4,0.2-4.9,0.2-7.3-0.1v1.8c0,1.6-1.3,2.9-2.9,2.9H28.7c-1.5,0-2.8-1.2-2.9-2.7l0-1.1  c-0.1-1.7-0.6-6.3-4.1-9.8c-2.2-2.3-4.2-5.3-5.9-8.9c-1-1.9-1.8-4-2.3-6.1c-0.9-2.9-0.8-6.4-0.8-6.5c0-1.5,0.1-3,0.4-4.5  c0.1-0.5,0.6-0.9,1.2-0.8c0.5,0.1,0.9,0.6,0.8,1.2c-0.2,1.4-0.3,2.8-0.3,4.2c0,0.1-0.1,3.3,0.7,5.9c0,0,0,0.1,0,0.1  c0.5,2,1.2,3.9,2.1,5.7c1.6,3.4,3.4,6.2,5.5,8.4c4,4.1,4.6,9.2,4.7,11.2l0,0.9c0,0.5,0.4,0.9,0.9,0.9h11.7c0.5,0,0.9-0.4,0.9-0.9  v-2.9c0-0.3,0.1-0.6,0.3-0.8c0.2-0.2,0.5-0.3,0.8-0.2c3,0.4,6,0.4,9.1,0.1c0.3,0,0.6,0.1,0.8,0.3c0.2,0.2,0.3,0.5,0.3,0.7v2.8  c0,0.5,0.4,0.9,0.9,0.9h11.7c0.5,0,0.9-0.4,0.9-0.9v-2.9c0-1.2,0.4-5.3,4.3-8.8l0.5-0.4c0.6-0.7,6.9-8.1,8.3-12.7  c0.1-0.4,0.5-0.7,1-0.7h2.5c1.4,0,2.6-1.1,2.6-2.6v-8.8c0-1.4-1.1-2.6-2.6-2.6h-2.6c-0.5,0-0.8-0.2-1-0.7c-1.6-5-4.9-9.6-9.3-13.1  c-0.2-0.2-0.4-0.5-0.4-0.7c0-0.1,0-0.2,0-0.3c-0.8-3-0.3-6.2,1.7-9.3c0.2-0.4,0.2-0.8,0-1.2c-0.2-0.4-0.6-0.6-1.1-0.5  c-5.7,0.7-8.7,3.5-10.2,5.7c-0.2,0.4-0.7,0.5-1.1,0.4c-2.2-0.7-4.4-1.2-6.7-1.4c-0.5-0.1-0.9-0.6-0.9-1.1c0.1-0.5,0.6-0.9,1.1-0.9  c2.2,0.3,4.3,0.7,6.4,1.3c1.8-2.5,5.2-5.3,11.2-6c1.2-0.2,2.4,0.4,3,1.4c0.7,1,0.7,2.3,0,3.3c-1.7,2.7-2.2,5.3-1.5,7.7  c0,0.1,0,0.2,0.1,0.3c4.4,3.6,7.6,8.1,9.4,13.1h1.9c2.5,0,4.6,2,4.6,4.6v8.8c0,2.5-2,4.6-4.6,4.6H81c-1.9,5.1-8.2,12.4-8.5,12.7  c0,0-0.1,0.1-0.1,0.1l-0.5,0.4c-3.4,3-3.6,6.6-3.6,7.3v2.9c0,1.6-1.3,2.9-2.9,2.9H53.6C52,98.6,50.7,97.3,50.7,95.7z M28.4,23.6  c8.5,0,15.5,7,15.5,15.5s-7,15.5-15.5,15.5s-15.5-7-15.5-15.5S19.8,23.6,28.4,23.6z M28.4,25.6c-7.4,0-13.5,6.1-13.5,13.5  s6.1,13.5,13.5,13.5s13.5-6.1,13.5-13.5S35.8,25.6,28.4,25.6z M36.7,11.9c0-5.8,4.7-10.5,10.5-10.5s10.5,4.7,10.5,10.5  S53,22.4,47.2,22.4S36.7,17.7,36.7,11.9z M38.7,11.9c0,4.7,3.8,8.5,8.5,8.5s8.5-3.8,8.5-8.5s-3.8-8.5-8.5-8.5S38.7,7.2,38.7,11.9z"/></svg>